<?xml version="1.0" encoding="utf-8"?>
<!-- Generator: Adobe Illustrator 12.0.0, SVG Export Plug-In . SVG Version: 6.00 Build 51448)  -->
<!DOCTYPE svg PUBLIC "-//W3C//DTD SVG 1.1//EN" "http://www.w3.org/Graphics/SVG/1.1/DTD/svg11.dtd" [
	<!ENTITY ns_svg "http://www.w3.org/2000/svg">
	<!ENTITY ns_xlink "http://www.w3.org/1999/xlink">
]>
<svg  version="1.1" id="Layer_1" xmlns="&ns_svg;" xmlns:xlink="&ns_xlink;" width="647.899" height="266.988"
	 viewBox="0 0 647.899 266.988" overflow="visible" enable-background="new 0 0 647.899 266.988" xml:space="preserve">
<g>
	<path fill-rule="evenodd" clip-rule="evenodd" fill="#8D777E" d="M581.024,252.163L581.024,252.163
		c0.969-0.392,1.438-1.494,1.047-2.463l-34.352-85.046c-0.392-0.969-1.494-1.438-2.464-1.046l0,0
		c-0.969,0.392-1.437,1.494-1.046,2.463l34.352,85.046C578.952,252.086,580.055,252.554,581.024,252.163z"/>
	<ellipse fill="#E8E8E8" cx="468.539" cy="258.514" rx="150.687" ry="8.474"/>
	<path fill-rule="evenodd" clip-rule="evenodd" fill="#8D777E" d="M514.389,206.018h-30.24c-0.824,0-1.499-0.674-1.499-1.498l0,0
		c0-0.824,0.674-1.498,1.499-1.498h30.24c0.824,0,1.498,0.674,1.498,1.498l0,0C515.887,205.344,515.212,206.018,514.389,206.018z"/>
	<path fill-rule="evenodd" clip-rule="evenodd" fill="#8D777E" d="M508.833,252.163L508.833,252.163
		c-0.969-0.392-1.438-1.494-1.046-2.463l34.352-85.046c0.391-0.969,1.494-1.438,2.463-1.046l0,0
		c0.969,0.392,1.438,1.494,1.046,2.463l-34.351,85.046C510.905,252.086,509.803,252.554,508.833,252.163z"/>
	<path fill-rule="evenodd" clip-rule="evenodd" fill="#8D777E" d="M535.338,252.163L535.338,252.163
		c0.969-0.392,1.438-1.494,1.046-2.463l-34.352-85.046c-0.391-0.969-1.494-1.438-2.463-1.046h0
		c-0.969,0.392-1.437,1.494-1.046,2.463l34.352,85.046C533.266,252.086,534.37,252.554,535.338,252.163z"/>
	<path fill-rule="evenodd" clip-rule="evenodd" fill="#8D777E" d="M561.641,206.018h-32.395c-0.824,0-1.498-0.674-1.498-1.498l0,0
		c0-0.824,0.674-1.498,1.498-1.498h32.395c0.824,0,1.498,0.674,1.498,1.498l0,0C563.139,205.344,562.465,206.018,561.641,206.018z"
		/>
	<path fill-rule="evenodd" clip-rule="evenodd" fill="#F6AD36" d="M496.735,65.258c0,0-8.449,13.81-10.007,38.597
		c0,0,6.116-0.58,6.098-1.459C492.808,101.517,496.735,65.258,496.735,65.258z"/>
	<path fill-rule="evenodd" clip-rule="evenodd" fill="#8D777E" d="M606.975,255.221L606.975,255.221
		c-1.39,0.524-2.957-0.134-3.502-1.47l-47.841-117.267c-0.545-1.336,0.14-2.845,1.528-3.369l0,0c1.389-0.524,2.957,0.134,3.502,1.47
		l47.84,117.267C609.047,253.188,608.364,254.696,606.975,255.221z"/>
	<polygon fill-rule="evenodd" clip-rule="evenodd" fill="#EC6C6C" points="439.196,248.625 426.806,247.732 430.905,233.467 
		442.77,234.322 	"/>
	<polygon fill-rule="evenodd" clip-rule="evenodd" fill="#EC6C6C" points="494.873,248.517 481.609,247.562 483.278,233.897 
		496.542,234.854 	"/>
	<path fill-rule="evenodd" clip-rule="evenodd" fill="#43383C" d="M409.679,257.078c-0.038,0.51,0.138,0.992,0.49,1.337
		c0.351,0.345,4.428,0.904,4.958,0.876c5.034-0.258,14.677-1.317,21.346-1.659c1.038-0.054,2.054-0.512,2.812-1.268
		c0.759-0.757,1.196-1.747,1.211-2.745c0.057-3.744,0.135-8.9,0.135-8.9l-12.679-1.239c0,0-10.419,6.962-15.662,9.415
		C410.092,253.922,409.848,254.81,409.679,257.078L409.679,257.078L409.679,257.078z"/>
	<path fill-rule="evenodd" clip-rule="evenodd" fill="#8D777E" d="M461.141,257.13L461.141,257.13
		c-0.969-0.392-1.438-1.494-1.046-2.463l36.358-90.014c0.391-0.969,1.494-1.438,2.463-1.046l0,0
		c0.969,0.392,1.437,1.494,1.046,2.463l-36.358,90.014C463.213,257.053,462.11,257.521,461.141,257.13z"/>
	<path fill-rule="evenodd" clip-rule="evenodd" fill="#8D777E" d="M463.402,258.41L463.402,258.41
		c-1.39,0.521-3.023-0.302-3.647-1.84l-54.79-134.976c-0.625-1.538-0.004-3.208,1.386-3.729l0,0c1.39-0.522,3.023,0.302,3.647,1.84
		l54.791,134.976C465.413,256.219,464.792,257.889,463.402,258.41z"/>
	<path fill-rule="evenodd" clip-rule="evenodd" fill="#715F65" d="M549.22,169.742h-71.669c-4.504,0-8.156-3.651-8.156-8.156v-0.453
		c0-4.504,3.652-8.156,8.156-8.156h71.669c4.504,0,8.155,3.651,8.155,8.156v0.453C557.375,166.091,553.724,169.742,549.22,169.742z"
		/>
	<path fill-rule="evenodd" clip-rule="evenodd" fill="#F7C5C9" d="M500.129,117.242c0,0-7.817,22.457-7.277,26.833
		c1.012,8.201,5.487,14.013,5.487,14.013l38.356-0.302c10.95-0.086,19.211-9.974,17.355-20.767
		c-0.008-0.052-0.018-0.104-0.026-0.154c-0.177-1.03-0.336-2.064-0.476-3.101c-0.658-4.856-2.629-19.424-2.629-19.424
		c-11.915,7.724-33.503,10.904-52.421,5.8L500.129,117.242z"/>
	<path fill-rule="evenodd" clip-rule="evenodd" fill="#F6AD36" d="M468.579,118.783l14.107-12.359l10.674-13.365l6.326,14.97
		c-6.282,9.415-15.025,16.978-28.784,20.771l-1.675-5.02L468.579,118.783z"/>
	<path fill-rule="evenodd" clip-rule="evenodd" fill="#F7C5C9" d="M428.219,237.768c0.005-2.154,12.293-48.947,19.229-68.623
		c1.917-5.439,5.878-9.912,11.043-12.477l41.195-20.455l26.916,22.863l-56.649,23.378c-2.202,14.858-12.686,36.359-24.653,56.75
		L428.219,237.768z"/>
	<path fill-rule="evenodd" clip-rule="evenodd" fill="#DBAFB2" d="M438.401,238.625c1.647-13.634,12.275-25.826,17.07-32.607
		c6.096-8.62,2.376-22.975,4.911-30.163c0.719-2.04,2.732-4.688,5.24-7.335c5.56-5.872,12.703-9.958,20.461-12.241
		c10.5-3.09,16.723-7.523,23.269-11.854l17.25,14.653l-56.649,23.378c-2.202,14.858-12.686,36.359-24.653,56.75L438.401,238.625z"/>
	<path fill-rule="evenodd" clip-rule="evenodd" fill="#715F65" d="M321.946,258.03L321.946,258.03
		c-1.384-0.537-2.032-2.103-1.447-3.497l51.307-122.408c0.584-1.395,2.18-2.09,3.564-1.554l0,0c1.384,0.537,2.032,2.103,1.447,3.498
		l-51.307,122.408C324.926,257.871,323.33,258.566,321.946,258.03z"/>
	<path fill-rule="evenodd" clip-rule="evenodd" fill="#43383C" d="M464.556,259.255c-0.038,0.51,0.138,0.992,0.489,1.337
		c0.352,0.345,4.428,0.904,4.958,0.876c5.034-0.258,14.677-1.317,21.346-1.66c1.038-0.053,2.053-0.511,2.812-1.268
		c0.759-0.756,1.196-1.747,1.211-2.745c0.057-3.744,0.134-8.899,0.134-8.899l-14.089-0.309c0,0-9.008,6.032-14.251,8.484
		C464.969,256.1,464.725,256.987,464.556,259.255L464.556,259.255L464.556,259.255z"/>
	<path fill-rule="evenodd" clip-rule="evenodd" fill="#43383C" d="M510.406,19.961c0,0-9.07,4.099-1.967,12.548
		C515.542,40.959,510.406,19.961,510.406,19.961L510.406,19.961z"/>
	<path fill-rule="evenodd" clip-rule="evenodd" fill="#F6AD36" d="M541.114,59.731c0,0-0.09-5.104-5.149-7.606
		c-2.425-1.199-6.294-2.167-11.299-0.997c-9.998,2.338-13.362,3.862-13.362,3.862l-3.77,12.473l12.593,5.988l24.801-18.565
		L541.114,59.731z"/>
	<path fill-rule="evenodd" clip-rule="evenodd" fill="#EC6C6C" d="M508.729,27.192c0.123-3.026,1.488-5.868,3.773-7.856
		c2.286-1.987,5.289-2.945,8.303-2.648h0.001c5.832,0.576,10.202,5.601,9.965,11.458c-0.137,3.369-0.287,7.058-0.417,10.253
		c-0.088,2.161-1.063,4.19-2.694,5.61c-1.632,1.419-3.776,2.103-5.929,1.891c-1.996-0.197-4.118-0.406-6.081-0.601
		c-4.282-0.422-7.491-4.112-7.316-8.411C508.455,33.92,508.596,30.456,508.729,27.192L508.729,27.192z"/>
	<polygon fill-rule="evenodd" clip-rule="evenodd" fill="#EC6C6C" points="536.217,58.541 528.311,38.018 513.933,44.429 
		517.922,64.199 536.217,58.541 	"/>
	<path fill-rule="evenodd" clip-rule="evenodd" fill="#43383C" d="M524.42,25.892c0,0-1.408,10.056,6.486,10.287
		c0,0,4.015-9.064,4.475-13.716c0.857-8.65-16.463-10.374-23.478-6.692C504.89,19.452,509.19,26.097,524.42,25.892L524.42,25.892z"
		/>
	<path fill-rule="evenodd" clip-rule="evenodd" fill="#FFFFFF" d="M516.041,54.874c4.77,7.196,16.182,0.673,18.042-1.872
		c0.295-0.403,5.329,2.541,5.979,2.99c10.032,6.921,11.338,36.632,13.129,47.342c0.832,4.979,5.507,21.735,3.014,26.082
		c-0.824,1.438-8.654,0.336-10.197,0.611c-6.539,1.165-35.859,3.441-39.885-1.05c-3.999-4.46-1.001-12.765-1.773-18.042
		c-4.06-27.732,3.705-51.794,3.705-51.794L516.041,54.874z"/>
	<path fill-rule="evenodd" clip-rule="evenodd" fill="#E8E8E8" d="M505.197,94.007c5.687,15.17,48.069-1.113,43.25-8.397
		c-6.723-10.166,2.953,7.015,4.744,17.724c0.832,4.979,5.507,21.735,3.014,26.082c-0.824,1.438-4.168,13.071-5.734,13.128
		c-20.746,0.749-52.655,1.926-54.09-3.933c-2.022-8.254,7.287-22.386,7.968-27.676C506.115,97.214,505.197,94.007,505.197,94.007z"
		/>
	<path fill-rule="evenodd" clip-rule="evenodd" fill="#EC6C6C" d="M530.737,31.977c-1.433-0.365-2.974,0.824-3.439,2.652
		c-0.467,1.829,0.318,3.61,1.75,3.976c1.434,0.365,2.975-0.824,3.44-2.653C532.954,34.124,532.169,32.342,530.737,31.977
		L530.737,31.977z"/>
	<path fill-rule="evenodd" clip-rule="evenodd" fill="#43383C" d="M508.304,36.899c-0.512-0.902-2.667,13.549,6.02,14.282
		c8.686,0.733,12.334-2.809,12.924-19.406c0,0-3.484,10.084-8.559,10.237C508.089,42.333,508.918,37.979,508.304,36.899
		L508.304,36.899z"/>
	<path fill-rule="evenodd" clip-rule="evenodd" fill="#F7C5C9" d="M544.732,155.799l-4.366-6.679l-29.413-2.108l-21.729,10.32
		c-6.548,3.11-10.698,9.735-10.64,16.983l0.146,18.155l0.042-0.023l-1.171,50.297l19.304-0.54c6.094-24.184,8.49-44.75,6.584-63.491
		L544.732,155.799z"/>
	<path fill-rule="evenodd" clip-rule="evenodd" fill="#F6AD36" d="M511.304,54.99c0,0-5.319,27.069-5.451,43.371
		c-0.132,16.302-7.399,49.533-7.399,49.533c-2.622-4.869-11.925-3.407-12.759-7.849c0,0,8.148-53.622,9.585-67.681
		C496.684,58.625,501.992,58.723,511.304,54.99z"/>
	<path fill-rule="evenodd" clip-rule="evenodd" fill="#43383C" d="M518.772,25.576c0,0-19.242-1.51-14.772-10.04
		c4.134-7.891,17.604,8.728,20.435,5.695L518.772,25.576z"/>
	<path fill-rule="evenodd" clip-rule="evenodd" fill="#EC6C6C" d="M495.279,122.333c0,0-4.862-3.327-7.967-1.712
		c-1.48,0.77-3.941,0.811-6.151,2.039c-2.429,1.35-5.051,5.065-5.051,5.065s-0.011,3.441,3.052,4.039
		c1.095,0.214,4.372-2.709,4.372-2.709c2.959,1.058,6.496,1.036,10.504,0.13L495.279,122.333z"/>
	<path fill-rule="evenodd" clip-rule="evenodd" fill="#EC6C6C" d="M472.645,122.057c0,0-4.605-3.675-7.821-2.292
		c-1.532,0.659-3.99,0.519-6.284,1.582c-2.521,1.167-5.409,4.681-5.409,4.681s-0.264,3.431,2.748,4.252
		c1.076,0.293,4.559-2.381,4.559-2.381c2.874,1.271,6.402,1.509,10.466,0.9L472.645,122.057z"/>
	<polygon fill-rule="evenodd" clip-rule="evenodd" fill="#EC6C6C" points="495.279,122.333 510.698,121.199 511.304,129.422 
		491.996,128.356 	"/>
	<rect x="450.664" y="126.956" fill-rule="evenodd" clip-rule="evenodd" fill="#FFFFFF" width="50.478" height="3.205"/>
	<path fill-rule="evenodd" clip-rule="evenodd" fill="#F6AD36" d="M563.715,109.706c-0.179-7.498-0.763-16.396-2.189-25.53
		c-1.672-10.707-3.831-18.739-7.589-23.175c-3.294-3.891-6.436-4.485-10.63-6.553l-7.343-2.323
		c-4.491,20.881-7.588,40.805-5.644,61.483l-24.522,4.864l0.054,11.688h27.123h10.742l7.55-2.454l7.175-4.012
		C561.82,120.025,563.843,115.097,563.715,109.706z"/>
	<path fill-rule="evenodd" clip-rule="evenodd" fill="#FFFFFF" d="M463.518,130.161h-57.928l-17.479-38.953h56.602
		c0.807,0,1.54,0.474,1.87,1.21L463.518,130.161z"/>
	<path fill-rule="evenodd" clip-rule="evenodd" fill="#43383C" d="M461.27,130.161h-57.928L386.668,93
		c-0.377-0.841,0.238-1.792,1.161-1.792h55.14c0.501,0,0.955,0.294,1.16,0.751L461.27,130.161z"/>
	<path fill-rule="evenodd" clip-rule="evenodd" fill="#F6AD36" d="M529.725,104.902c0,0-0.491,20.724-5.271,30.249
		c-2.113,4.21-13.15,15.434-13.15,15.434s42.337,4.188,43.687-12.89c1.408-17.834,5.467-36.966,5.467-36.966L529.725,104.902z"/>
	<path fill-rule="evenodd" clip-rule="evenodd" fill="#FFFFFF" d="M425.672,110.93c0.689,2.429-1.191,4.399-4.199,4.399
		c-3.008,0-6.005-1.97-6.694-4.399c-0.689-2.43,1.191-4.399,4.199-4.399C421.986,106.53,424.983,108.5,425.672,110.93z"/>
	<path fill-rule="evenodd" clip-rule="evenodd" fill="#715F65" d="M473.218,266.814L473.218,266.814
		c-1.384-0.536-2.011-2.154-1.4-3.615l53.634-128.171c0.61-1.46,2.229-2.21,3.612-1.674l0,0c1.385,0.536,2.012,2.154,1.4,3.614
		L476.831,265.14C476.22,266.601,474.602,267.35,473.218,266.814z"/>
	<path fill-rule="evenodd" clip-rule="evenodd" fill="#715F65" d="M505.853,130.161"/>
	<path fill-rule="evenodd" clip-rule="evenodd" fill="#F6AD36" d="M563.715,109.706c-0.179-7.498-0.763-16.396-2.189-25.53
		c-1.672-10.707-3.831-18.739-7.589-23.175c-3.294-3.891-6.436-4.485-10.63-6.553l-7.343-2.323
		c28.126,14.406,19.021,45.238,20.966,65.917c-4.522,2.407-6.658,1.637-17.182,3.741c-5.622,1.713-11.128,4.195-19.582,5.69
		c-6.35-1.345-9.917-1.78-14.314-0.517v3.205h27.123h10.742l7.55-2.454l7.175-4.012C561.82,120.025,563.843,115.097,563.715,109.706
		z"/>
	<path fill-rule="evenodd" clip-rule="evenodd" fill="#F6AD36" d="M529.561,113.799c0,0,12.196-4.254,16.873-4.254
		c0,0-14.188-0.39-16.747,0.195L529.561,113.799z"/>
	<path fill-rule="evenodd" clip-rule="evenodd" fill="#43383C" d="M570.417,136.213H361.492c-1.664,0-3.026-1.362-3.026-3.026l0,0
		c0-1.665,1.362-3.026,3.026-3.026h208.925c1.664,0,3.026,1.362,3.026,3.026l0,0C573.443,134.852,572.081,136.213,570.417,136.213z"
		/>
	<path fill-rule="evenodd" clip-rule="evenodd" fill="#EC6C6C" d="M515.268,103.582l6.988-2.099l-3.401-7.189
		c0,0-11.035-4.948-12.748-1.571c-1.713,3.377-0.248,11.848,4.456,11.353C515.268,103.582,515.268,103.582,515.268,103.582z"/>
	<path fill-rule="evenodd" clip-rule="evenodd" fill="#EC6C6C" d="M511.776,96.458l-9.986-0.512
		c-1.09-0.056-1.936-0.993-1.879-2.083l0,0c0.056-1.09,0.993-1.936,2.083-1.88l9.986,0.512c1.09,0.056,1.936,0.993,1.88,2.083l0,0
		C513.802,95.668,512.865,96.514,511.776,96.458z"/>
	<path fill-rule="evenodd" clip-rule="evenodd" fill="#EC6C6C" d="M627.973,85.481c-0.965,7.269,10.35,21.982,9.545,37.426
		l6.698-0.06c0,0,1.724-31.164-9.218-46.402C633.149,80.388,630.922,83.615,627.973,85.481z"/>
	
		<rect x="609.632" y="234.219" transform="matrix(0.9997 -0.0233 0.0233 0.9997 -5.4433 14.3678)" fill-rule="evenodd" clip-rule="evenodd" fill="#EC6C6C" width="7.876" height="12.901"/>
	
		<rect x="576.964" y="233.346" transform="matrix(0.9997 -0.0235 0.0235 0.9997 -5.4821 13.7029)" fill-rule="evenodd" clip-rule="evenodd" fill="#EC6C6C" width="8.156" height="14.115"/>
	<path fill-rule="evenodd" clip-rule="evenodd" fill="#715F65" d="M610.705,96.373l-35.06,1.462
		c-9.693,17.813-8.229,39.381-8.229,39.381s-0.621,43.21-0.133,45.01l8.449,54.88l11.891-1.727
		c-0.866-21.171-0.278-30.859-1.801-45.388l7.677-50.934c11.941-0.247,26.065,9.015,27.551-10.662
		C622.749,105.902,610.705,96.373,610.705,96.373z"/>
	<path fill-rule="evenodd" clip-rule="evenodd" fill="#715F65" d="M591.217,102.063l7.75,77.654l6.828,58.105l13.078,0.539
		c1.881-22.855,4.121-36.393-1.627-52.955l3.824-57.301l-16.51-21.406L591.217,102.063z"/>
	<path fill-rule="evenodd" clip-rule="evenodd" fill="#43383C" d="M609.482,245.218c0,0-1.647,8.285-1.466,13.347
		c0.031,0.863,0.504,1.756,1.27,2.396c0.766,0.639,1.729,0.947,2.585,0.826c1.842-0.261,3.944-0.56,5.245-0.744
		c0.811-0.115,1.496-0.498,1.951-1.09c0.273-0.354,0.604-0.785,0.951-1.236c1.584-2.06,0.808-4.102-0.207-6.982
		c-1.049-2.977-1.813-6.409-1.813-6.409C613.317,242.201,609.482,245.218,609.482,245.218z"/>
	<path fill-rule="evenodd" clip-rule="evenodd" fill="#43383C" d="M564.739,7.9c0,0-9.725,13.108,3.303,24.331
		s11.117-0.736,11.117-0.736S574.375,10.032,564.739,7.9z"/>
	<path fill-rule="evenodd" clip-rule="evenodd" fill="#43383C" d="M591.31,4.083c0,0,3.507,3.328,10.836,5.158
		c6.346,1.584,9.976,4.047,13.987,10.354c6.419,10.091,16.228,2.685,21.006,18.586c2.931,9.748-3.834,19.882-21.58,14.861
		c-17.746-5.021-36.067,14.862-46.322-18.134c-3.626-11.664,16.034-20.686,16.034-20.686L591.31,4.083z"/>
	<path fill-rule="evenodd" clip-rule="evenodd" fill="#E8E8E8" d="M567.284,43.455l14.089-5.319l8.932-1.85l11.614,2.55
		c5.759,1.264,9.671,6.623,9.121,12.492l-2.35,25.117l3.416,20.906c-14.023,5.73-27.115,8.684-36.461,0.484l-7.014-22.833
		L567.284,43.455z"/>
	<path fill-rule="evenodd" clip-rule="evenodd" fill="#EC6C6C" d="M577.553,26.843c0,0,1.747,7.517,3.195,13.743
		c0.385,1.659,1.635,2.98,3.27,3.458c1.635,0.478,3.399,0.037,4.617-1.153c0.398-0.389,0.787-0.769,1.155-1.128
		c1.671-1.631,2.249-4.08,1.487-6.287c-1.954-5.656-5.513-15.96-5.513-15.96L577.553,26.843L577.553,26.843z"/>
	<path fill-rule="evenodd" clip-rule="evenodd" fill="#EC6C6C" d="M578.458,30.736c0,0,5.244-0.398,7.365-2.657
		c0,0-1.854,6.363-6.227,7.551L578.458,30.736z"/>
	<path fill-rule="evenodd" clip-rule="evenodd" fill="#EC6C6C" d="M585.184,9.615c-0.645-2.863-3.489-4.661-6.353-4.016
		c-3.056,0.689-6.911,1.558-9.966,2.247c-2.863,0.646-4.211,3.424-4.017,6.353c0.229,3.457,2.308,10.268,4.416,15.027
		c1.188,2.684,3.995,4.772,6.858,4.127c3.057-0.689,11.559-5.665,11.211-11.328C587.071,17.713,586.135,13.83,585.184,9.615
		L585.184,9.615z"/>
	<path fill-rule="evenodd" clip-rule="evenodd" fill="#43383C" d="M598.83,12.109c0,0-7.493-10.007-13.06-11.172
		c-8.037-1.683-16.162-2.138-21.545,7.846c0,0,5.195,16.655,29.945,6.313L598.83,12.109z"/>
	
		<ellipse transform="matrix(0.992 0.1265 -0.1265 0.992 7.2276 -74.1568)" fill-rule="evenodd" clip-rule="evenodd" fill="#EC6C6C" cx="587.345" cy="19.814" rx="3.614" ry="4.366"/>
	<path fill-rule="evenodd" clip-rule="evenodd" fill="#43383C" d="M576.36,245.765l-6.034,5.966
		c-1.433,1.417-3.288,2.328-5.285,2.597l-2.035,0.274c-0.907,0.122-1.634,0.812-1.803,1.711l0,0
		c-0.232,1.236,0.654,2.401,1.907,2.507l6.805,0.578l15.684-2.954c0,0,5.221-1.534,0.911-11.311L576.36,245.765z"/>
	<path fill-rule="evenodd" clip-rule="evenodd" fill="#E8E8E8" d="M567.284,43.455c0,0-5.467,0.786-8.744,12.365
		s-11.51,28.289-11.51,28.289s-11.747,17.221,8.961,16.462c12.156-0.446,21.293-32.898,21.293-32.898l1.508-11.054L567.284,43.455z"
		/>
	<path fill-rule="evenodd" clip-rule="evenodd" fill="#EC6C6C" d="M553.711,99.991l-32.557,1.645l-1.617-7.266l27.558-7.99
		C553.805,84.159,558.78,97.387,553.711,99.991z"/>
	<path fill-rule="evenodd" clip-rule="evenodd" fill="#EC6C6C" d="M637.518,122.907l-1.402,14.495c0,0,2.368,11.699,8.199,8.629
		s2.92-7.041,2.39-8.629c-0.529-1.588,2.435-5.551-2.488-14.555L637.518,122.907z"/>
	<path fill-rule="evenodd" clip-rule="evenodd" fill="#E8E8E8" d="M606.256,40.784c0,0,15.654,9.618,20.771,18.441
		c5.118,8.824,21.338,24.433,17.287,33.834c-4.051,9.401-13.58,9.707-19.58-1.917c-6-11.623-18.479-19.917-18.479-19.917V40.784z"/>
	<path fill-rule="evenodd" clip-rule="evenodd" fill="#7A70B3" d="M444.872,64.324h-31.336c-8.872,0-16.13-7.259-16.13-16.13v0
		c0-8.872,7.259-16.13,16.13-16.13h31.336c8.872,0,16.13,7.259,16.13,16.13v0C461.002,57.065,453.744,64.324,444.872,64.324z"/>
	<polygon fill-rule="evenodd" clip-rule="evenodd" fill="#7A70B3" points="447.263,62.806 465.21,69.367 459.616,52.923 	"/>
	<circle fill-rule="evenodd" clip-rule="evenodd" fill="#FFFFFF" cx="414.449" cy="46.367" r="3.517"/>
	<circle fill-rule="evenodd" clip-rule="evenodd" fill="#FFFFFF" cx="428.304" cy="46.367" r="3.517"/>
	<circle fill-rule="evenodd" clip-rule="evenodd" fill="#FFFFFF" cx="442.159" cy="46.367" r="3.517"/>
	<polygon fill-rule="evenodd" clip-rule="evenodd" fill="#43383C" points="593.5,139.056 583.706,139.056 588.233,173.995 	"/>
	<path fill-rule="evenodd" clip-rule="evenodd" fill="#D1D1D1" d="M571.307,83.713c0,0-10.102-5.436-8.117-14.124
		c1.985-8.688,1.641-9.747,1.641-9.747s-7.781,11.879-2.699,21.706s5.082,9.827,5.082,9.827L571.307,83.713z"/>
	<path fill-rule="evenodd" clip-rule="evenodd" fill="#D1D1D1" d="M612.077,75.034l-6.401-8.188
		c0.845,4.331-0.503,8.509-4.588,12.497c-0.69,7.436,2.03,20.083-2.258,22.72l13.825-4.383l-0.211-17.241L612.077,75.034z"/>
</g>
<g>
	<path fill="#74804E" d="M321.851,196.637c0,0,6.781-40.7,33.883-66.247c0,0,14.354,53.893-22.236,67.449
		C330.851,198.82,321.851,196.637,321.851,196.637z"/>
	<path fill="#74804E" d="M315.007,150.041c0,0-1.059-36.26-29.471-45.182c0,0-6.926,56.242,26.443,91.778l6.909,3.447
		L315.007,150.041z"/>
	<path fill="#97A85E" d="M314.301,197.839c0,0-12.353-70.513,19.94-101.031c0,0,17.069,51.537-11.131,103.276L314.301,197.839z"/>
	<path fill="#DCDBDB" d="M326.466,77.066h-96.971c-6.6,0-12-5.4-12-12V36.438c0-6.601,5.4-12,12-12h96.971c6.6,0,12,5.399,12,12
		v28.628C338.466,71.666,333.065,77.066,326.466,77.066z"/>
	<path fill="#7A70B3" d="M284.54,46.968h-50.795c-2.871,0-5.221-2.349-5.221-5.22l0,0c0-2.871,2.35-5.22,5.221-5.22h50.795
		c2.871,0,5.221,2.349,5.221,5.22l0,0C289.761,44.62,287.411,46.968,284.54,46.968z"/>
	<path fill="#7A70B3" d="M323.452,46.968h-20.354c-2.871,0-5.22-2.349-5.22-5.22l0,0c0-2.871,2.349-5.22,5.22-5.22h20.354
		c2.871,0,5.22,2.349,5.22,5.22l0,0C328.672,44.62,326.323,46.968,323.452,46.968z"/>
	<path fill="#FFFFFF" d="M287.15,65.61h-56.016c-1.436,0-2.61-1.175-2.61-2.61l0,0c0-1.436,1.175-2.609,2.61-2.609h56.016
		c1.436,0,2.61,1.174,2.61,2.609l0,0C289.761,64.435,288.586,65.61,287.15,65.61z"/>
	<circle fill-rule="evenodd" clip-rule="evenodd" fill="#DCDBDB" cx="153.732" cy="39.805" r="28.588"/>
	<rect x="201.358" y="97.752" fill-rule="evenodd" clip-rule="evenodd" fill="#43383C" width="16.137" height="26.949"/>
	<path fill-rule="evenodd" clip-rule="evenodd" fill="#43383C" d="M228.267,130.161h-35.042c-1.501,0-2.729-1.229-2.729-2.729l0,0
		c0-1.501,1.229-2.729,2.729-2.729h35.042c1.5,0,2.729,1.229,2.729,2.729l0,0C230.995,128.932,229.767,130.161,228.267,130.161z"/>
	<ellipse fill="#E8E8E8" cx="169.233" cy="258.513" rx="169.233" ry="8.475"/>
	<path fill-rule="evenodd" clip-rule="evenodd" fill="#8D777E" d="M93.114,254.139L93.114,254.139
		c0.969-0.376,1.452-1.394,1.08-2.272L61.554,174.67c-0.371-0.879-1.459-1.288-2.428-0.913l0,0c-0.969,0.376-1.452,1.394-1.08,2.272
		l32.641,77.196C91.058,254.105,92.146,254.514,93.114,254.139z"/>
	<polygon fill-rule="evenodd" clip-rule="evenodd" fill="#EC6C6C" points="75.939,234.65 88.073,240.448 96.326,231.031 
		84.192,225.233 	"/>
	<path fill-rule="evenodd" clip-rule="evenodd" fill="#43383C" d="M96.229,256.775c-0.263,0.388-0.699,0.654-1.211,0.74
		s-4.444-1.408-4.896-1.675c-4.305-2.532-12.221-7.79-17.923-11.145c-0.888-0.522-1.521-1.327-1.751-2.228
		c-0.23-0.901-0.041-1.822,0.525-2.552c2.129-2.736,5.059-6.505,5.059-6.505l12.646,6.339c0,0,4.463,8.563,7.676,12.78
		C97.7,254.298,97.4,255.055,96.229,256.775L96.229,256.775L96.229,256.775z"/>
	<path fill-rule="evenodd" clip-rule="evenodd" fill="#43383C" d="M142.579,188.492l-48.078,47.537l-15.693-8.792
		c11.43-22.918,28.875-50.974,44.793-50.422L142.579,188.492z"/>
	<polygon fill-rule="evenodd" clip-rule="evenodd" fill="#EC6C6C" points="153.12,249.263 164.579,242.225 161.155,230.18 
		149.696,237.218 	"/>
	<path fill-rule="evenodd" clip-rule="evenodd" fill="#43383C" d="M182.8,244.66c0.171,0.436,0.145,0.946-0.074,1.417
		c-0.217,0.471-3.672,2.871-4.148,3.094c-4.521,2.121-13.332,5.683-19.321,8.492c-0.933,0.437-1.953,0.504-2.827,0.185
		c-0.874-0.318-1.527-0.994-1.809-1.874c-1.055-3.303-2.509-7.85-2.509-7.85l12.376-6.853c0,0,9.586,1.155,14.881,0.889
		C181.587,242.046,182.042,242.722,182.8,244.66L182.8,244.66L182.8,244.66z"/>
	<path fill-rule="evenodd" clip-rule="evenodd" fill="#8D777E" d="M320.008,255.22L320.008,255.22
		c-1.389,0.524-2.956-0.134-3.502-1.47l-47.841-117.267c-0.545-1.336,0.14-2.845,1.529-3.369l0,0
		c1.389-0.524,2.957,0.134,3.502,1.47l47.84,117.268C322.081,253.188,321.397,254.696,320.008,255.22z"/>
	<path fill-rule="evenodd" clip-rule="evenodd" fill="#B99CA8" d="M4.095,258.03L4.095,258.03c-1.385-0.536-2.032-2.103-1.447-3.497
		l51.307-122.408c0.584-1.395,2.18-2.09,3.564-1.553l0,0c1.384,0.536,2.031,2.103,1.447,3.497L7.659,256.476
		C7.074,257.871,5.479,258.567,4.095,258.03z"/>
	<path fill-rule="evenodd" clip-rule="evenodd" fill="#715F65" d="M186.251,266.814L186.251,266.814
		c-1.384-0.535-2.011-2.154-1.399-3.614l53.634-128.171c0.611-1.46,2.229-2.21,3.613-1.674l0,0c1.385,0.535,2.012,2.154,1.4,3.614
		L189.864,265.14C189.253,266.6,187.636,267.35,186.251,266.814z"/>
	<path fill-rule="evenodd" clip-rule="evenodd" fill="#58494F" d="M54.672,144.312c0,0-3.896,30.42,21.515,33.86
		c25.412,3.441,74.867,2.164,74.867,2.164s4.236-21.752-11.375-25.484c-19.729-4.717-30.012-7.059-30.012-7.059L54.672,144.312z"/>
	<path fill-rule="evenodd" clip-rule="evenodd" fill="#EC6C6C" d="M71.513,69.941l6.119-19.189l13.49,5.085l-2.578,18.289
		C84.515,69.563,78.401,69.006,71.513,69.941L71.513,69.941z"/>
	<path fill-rule="evenodd" clip-rule="evenodd" fill="#D66262" d="M83.369,56.783c0,0,0.532,6.546,5.983,11.611l0.539-3.828
		l0.793-5.621C87.914,58.883,85.376,58.36,83.369,56.783z"/>
	<path fill="#EC6C6C" d="M74.905,41.24c1.818-8.994,2.469-10.524,10.373-12.047c8.008-0.81,2.719,2.031,11.023,3.899
		c4.887,1.1,4.929,5.633,4.116,11.33c-0.283,1.988,0.621,3.853,2.37,6.044c0.477,1.377-1.785,2.375-2.441,2.965
		c-0.771,0.694-0.18,7.392-2.071,8.525c-5.188,3.11-13.677-0.512-13.677-0.512c-9.125-4.737-3.955-23.21-3.955-23.21
		C80.124,35.119,74.423,43.627,74.905,41.24z"/>
	<path fill-rule="evenodd" clip-rule="evenodd" fill="#43383C" d="M85.154,45.328c0,0-4.706,9.547-8.85,13.651
		c-2.255,2.233-4.671-0.449-4.847-3.617c-0.348-6.312-4.859-11.916-2.223-20.946c1.352-4.627,12.069-7.085,20.21-7.783
		c9.448-0.81,20.154,11.729,4.507,13.111l-4.844,8.85c-0.707,1.293-2.622,1.097-3.053-0.313L85.154,45.328z"/>
	<path fill-rule="evenodd" clip-rule="evenodd" fill="#EC6C6C" d="M81.019,43.317c1.863-0.572,3.969,0.896,4.699,3.273
		c0.731,2.38-0.188,4.776-2.051,5.349c-1.864,0.572-3.97-0.896-4.7-3.275C78.236,46.286,79.155,43.889,81.019,43.317L81.019,43.317z
		"/>
	<rect x="135.538" y="126.956" fill-rule="evenodd" clip-rule="evenodd" fill="#715F65" width="50.478" height="3.205"/>
	<path fill-rule="evenodd" clip-rule="evenodd" fill="#43383C" d="M281.44,136.213H43.64c-1.664,0-3.025-1.362-3.025-3.026l0,0
		c0-1.665,1.361-3.026,3.025-3.026H281.44c1.664,0,3.025,1.361,3.025,3.026l0,0C284.466,134.851,283.104,136.213,281.44,136.213z"/>
	<path fill="#E8E8E8" d="M326.653,260.131h-9.859c-12.659,0-22.921-10.262-22.921-22.92v-43.11h55.701v43.11
		C349.574,249.87,339.313,260.131,326.653,260.131z"/>
	<path fill="#DCDBDB" d="M349.574,241.269v-43.43c-11.192,31.897-33.636,52.277-42.565,59.423c4.273,1.808,9.305,2.869,14.715,2.869
		l0,0C337.104,260.131,349.574,251.686,349.574,241.269z"/>
	<path fill-rule="evenodd" clip-rule="evenodd" fill="#7A70B3" d="M111.399,101.427l-1.732,46.366c0,0-23.974,7.515-55.988-1.11
		c-2.213-1.61-2.556-4.497-0.484-9.032l-0.56-30.724c-0.13-7.098,0.671-14.195,2.552-21.04c2.346-8.531,6.62-17.834,14.219-19.189
		c7.912-1.412,12.119-0.752,20.919,1.194c10.563,2.335,18.64,11.357,19.799,21.909L111.399,101.427z"/>
	<path fill-rule="evenodd" clip-rule="evenodd" fill="#EC6C6C" d="M157.019,120.142c0,0,4.291-4.038,7.608-2.922
		c1.581,0.532,4.019,0.193,6.393,1.064c2.608,0.959,5.772,4.226,5.772,4.226s0.543,3.397-2.393,4.462
		c-1.048,0.38-4.736-2.002-4.736-2.002c-2.762,1.502-8,3.108-12.101,2.832l-7.669-0.353l-3.529-4.323L157.019,120.142z"/>
	<path fill-rule="evenodd" clip-rule="evenodd" fill="#7A70B3" d="M106.387,80.063l20.741,32.387l26.32,3.434
		c2.354,0.308,4.114,2.313,4.114,4.686v7.989l-35.993,1.098l-23.559-13.5L106.387,80.063z"/>
	<path fill-rule="evenodd" clip-rule="evenodd" fill="#58494F" d="M151.489,175.766l13.219,58.66l-16.255,7.704
		c-10.867-22.554-21.097-42.918-18.693-61.506L151.489,175.766z"/>
	<path fill-rule="evenodd" clip-rule="evenodd" fill="#8D777E" d="M129.463,258.548L129.463,258.548
		c0.969-0.375,1.437-1.431,1.046-2.358l-34.352-81.435c-0.391-0.928-1.494-1.376-2.463-1.002l0,0
		c-0.969,0.375-1.438,1.432-1.047,2.359l34.352,81.434C127.391,258.475,128.493,258.923,129.463,258.548z"/>
	<path fill-rule="evenodd" clip-rule="evenodd" fill="#8D777E" d="M74.009,214.363H43.641c-0.788,0-1.435-0.646-1.435-1.434l0,0
		c0-0.789,0.646-1.435,1.435-1.435h30.368c0.789,0,1.434,0.646,1.434,1.435l0,0C75.442,213.717,74.798,214.363,74.009,214.363z"/>
	<path fill-rule="evenodd" clip-rule="evenodd" fill="#8D777E" d="M57.272,258.548L57.272,258.548
		c-0.969-0.375-1.438-1.431-1.047-2.358l34.352-81.435c0.392-0.928,1.494-1.376,2.463-1.002h0.001
		c0.969,0.375,1.437,1.432,1.046,2.359l-34.352,81.434C59.345,258.475,58.241,258.923,57.272,258.548z"/>
	<path fill-rule="evenodd" clip-rule="evenodd" fill="#8D777E" d="M110.144,214.363H77.622c-0.789,0-1.436-0.646-1.436-1.434l0,0
		c0-0.789,0.646-1.435,1.436-1.435h32.521c0.789,0,1.436,0.646,1.436,1.435l0,0C111.579,213.717,110.933,214.363,110.144,214.363z"
		/>
	<path fill-rule="evenodd" clip-rule="evenodd" fill="#8D777E" d="M23.138,257.734l-0.156-0.06
		c-0.926-0.358-1.373-1.367-0.999-2.254l33.065-78.386c0.373-0.887,1.428-1.314,2.354-0.957l0.156,0.061
		c0.926,0.358,1.373,1.367,0.999,2.254l-33.065,78.386C25.118,257.665,24.063,258.092,23.138,257.734z"/>
	<path fill-rule="evenodd" clip-rule="evenodd" fill="#715F65" d="M105.14,188.718H47.234c-4.629,0-8.382-3.753-8.382-8.382l0,0
		c0-4.63,3.753-8.383,8.382-8.383h57.905c4.629,0,8.383,3.753,8.383,8.383l0,0C113.522,184.965,109.769,188.718,105.14,188.718z"/>
	<path fill-rule="evenodd" clip-rule="evenodd" fill="#675FA2" d="M110.615,122.429l-12.604-11.745v39.351
		c0,0,7.431,0.229,11.656-2.241c2.085-1.648,2.814-3.481,0.246-6.563L110.615,122.429z"/>
	<path fill-rule="evenodd" clip-rule="evenodd" fill="#43383C" d="M240.192,111.677h-70.316c-2.94,0-5.287-2.453-5.156-5.391
		l2.049-45.968c0.123-2.758,2.396-4.931,5.156-4.931h70.316c2.941,0,5.287,2.453,5.156,5.391l-2.049,45.968
		C245.226,109.504,242.954,111.677,240.192,111.677z"/>
	<path fill-rule="evenodd" clip-rule="evenodd" fill="#DCDBDB" d="M234.953,105.688h-59.504c-2.488,0-4.474-1.974-4.363-4.336
		l1.733-36.976c0.104-2.219,2.027-3.967,4.363-3.967h59.504c2.488,0,4.475,1.974,4.363,4.337l-1.734,36.975
		C239.212,103.94,237.29,105.688,234.953,105.688z"/>
	<path fill-rule="evenodd" clip-rule="evenodd" fill="#FFFFFF" d="M215.895,96.149h-21.769c-6.121,0-11.131-5.009-11.131-11.13
		v-6.681c0-6.122,5.01-11.13,11.131-11.13h21.769c6.122,0,11.13,5.008,11.13,11.13v6.681
		C227.024,91.14,222.017,96.149,215.895,96.149z"/>
	<path fill-rule="evenodd" clip-rule="evenodd" fill="#7A70B3" d="M190.495,89.232l6.883-11.901c0.81-1.401,2.842-1.371,3.611,0.053
		l5.918,10.966l3.143-4.241c0.865-1.169,2.635-1.104,3.412,0.127l3.151,4.997H190.495z"/>
	<circle fill-rule="evenodd" clip-rule="evenodd" fill="#F6AD36" cx="211.672" cy="75.07" r="2.993"/>
</g>
</svg>
